<?xml version="1.0" encoding="UTF-8" standalone="no"?>
<!-- Created with Inkscape (http://www.inkscape.org/) -->

<svg
   xmlns:dc="http://purl.org/dc/elements/1.1/"
   xmlns:cc="http://creativecommons.org/ns#"
   xmlns:rdf="http://www.w3.org/1999/02/22-rdf-syntax-ns#"
   xmlns:svg="http://www.w3.org/2000/svg"
   xmlns="http://www.w3.org/2000/svg"
   xmlns:sodipodi="http://sodipodi.sourceforge.net/DTD/sodipodi-0.dtd"
   xmlns:inkscape="http://www.inkscape.org/namespaces/inkscape"
   width="210mm"
   height="297mm"
   viewBox="0 0 210 297"
   version="1.1"
   id="svg8"
   inkscape:version="0.92.3 (2405546, 2018-03-11)"
   sodipodi:docname="yt.svg">
  <defs
     id="defs2" />
  <sodipodi:namedview
     id="base"
     pagecolor="#ffffff"
     bordercolor="#666666"
     borderopacity="1.0"
     inkscape:pageopacity="0.0"
     inkscape:pageshadow="2"
     inkscape:zoom="1.4"
     inkscape:cx="346.59389"
     inkscape:cy="1265.5897"
     inkscape:document-units="mm"
     inkscape:current-layer="layer1"
     showgrid="false"
     inkscape:window-width="1865"
     inkscape:window-height="1025"
     inkscape:window-x="55"
     inkscape:window-y="27"
     inkscape:window-maximized="1" />
  <metadata
     id="metadata5">
    <rdf:RDF>
      <cc:Work
         rdf:about="">
        <dc:format>image/svg+xml</dc:format>
        <dc:type
           rdf:resource="http://purl.org/dc/dcmitype/StillImage" />
        <dc:title></dc:title>
      </cc:Work>
    </rdf:RDF>
  </metadata>
  <g
     inkscape:label="Layer 1"
     inkscape:groupmode="layer"
     id="layer1">
    <path
       style="fill:#d12121;stroke-width:0.11087301"
       d="m 80.637442,182.33415 c -16.253867,-0.22288 -30.490182,-0.65314 -36.588098,-1.10578 -2.140325,-0.15887 -6.292063,-0.72047 -7.73609,-1.04644 -4.238587,-0.9568 -7.682929,-3.04539 -9.870242,-5.98513 -1.422204,-1.91144 -2.968337,-5.76449 -3.78169,-9.4242 -0.75741,-3.408 -1.445205,-11.06214 -1.738538,-19.34735 -0.147859,-4.17631 -0.07199,-19.54168 0.111952,-22.67354 0.26177,-4.45692 0.654386,-9.27911 1.006588,-12.36313 0.552184,-4.83511 2.172098,-9.826 4.158005,-12.810634 0.769455,-1.156419 2.783046,-3.102038 4.168172,-4.027467 2.491168,-1.664398 4.947416,-2.512594 8.526248,-2.9443 4.656066,-0.561649 17.691684,-1.108367 33.261905,-1.395015 24.368848,-0.44863 58.819266,0.438574 65.304206,1.681784 5.37298,1.03004 9.74227,4.251538 11.91527,8.7852 1.17347,2.448272 2.29591,6.152262 2.75912,9.104932 0.32873,2.09548 0.87115,8.36438 1.20383,13.9132 0.19799,3.30204 0.19831,22.59091 0,26.05516 -0.31951,5.59406 -0.95411,12.66137 -1.30493,14.53241 -0.44641,2.38092 -1.15943,4.85614 -2.00905,6.97426 -0.98494,2.45552 -1.77986,3.74351 -3.2424,5.25364 -3.09757,3.19835 -6.50485,4.77899 -11.48431,5.32759 -8.60617,0.94816 -37.300228,1.73286 -54.660398,1.49481 z m 9.92313,-38.24863 c 8.26281,-4.2876 15.796638,-8.19741 16.741828,-8.68846 0.94519,-0.49104 1.71853,-0.95726 1.71853,-1.03603 0,-0.0788 -7.33628,-3.97307 -16.302848,-8.65399 -8.96657,-4.68093 -16.930621,-8.84291 -17.697902,-9.24885 -0.76728,-0.40594 -1.426328,-0.7068 -1.464553,-0.66858 -0.09021,0.0902 -0.09122,36.89457 -9.97e-4,36.98477 0.09091,0.0909 -0.22017,0.24986 17.005962,-8.68886 z"
       id="path826"
       inkscape:connector-curvature="0"
       inkscape:export-xdpi="200"
       inkscape:export-ydpi="200" />
    <g
       id="g858"
       transform="translate(6.6145833,2.078869)"
       inkscape:export-xdpi="200"
       inkscape:export-ydpi="200">
      <path
         style="fill:#f9ad53;stroke-width:0.26458335"
         d="m 65.144198,-16.548962 c -6.495089,-0.680333 -11.206732,-3.223445 -14.109198,-7.615446 -1.552263,-2.348879 -2.453463,-4.954485 -2.820967,-8.156153 -0.209571,-1.825762 -0.270381,-9.424482 -0.20093,-25.10771 0.110815,-25.024095 0.04607,-24.091521 1.951394,-28.107743 2.285919,-4.81848 6.311303,-7.881612 12.136993,-9.235693 1.980413,-0.460312 3.641006,-0.491749 25.796876,-0.488351 l 23.680214,0.0036 2.11666,0.591482 c 3.53245,0.987109 5.81051,2.269271 8.10038,4.559142 1.58735,1.587349 2.25778,2.509787 3.09271,4.255234 2.09984,4.389754 2.03608,3.445814 2.03608,30.142089 0,26.654441 0.0668,25.655477 -1.99641,29.84032 -2.57464,5.222093 -7.43481,8.512554 -13.73936,9.301894 -2.48008,0.310509 -43.099487,0.325776 -46.044442,0.0173 z m 34.395835,-10.578396 c 3.893017,-0.281096 5.789847,-0.734354 8.394377,-2.005889 3.824,-1.866879 6.84384,-5.898856 7.91509,-10.56794 0.55837,-2.433685 0.84145,-24.395029 0.3759,-29.162802 -0.9318,-9.542787 -5.99913,-14.724634 -15.32434,-15.670682 -3.552854,-0.36044 -23.246284,-0.36044 -26.79914,0 -9.175028,0.930811 -14.350264,6.106981 -15.291572,15.294329 -0.349385,3.410063 -0.36177,21.592482 -0.01751,25.702697 0.47299,5.647126 1.770207,8.894352 4.739237,11.863382 2.685732,2.685733 5.704288,4.044461 10.078787,4.536716 2.50733,0.282143 22.056337,0.289827 25.929168,0.01019 z m -22.497302,-5.020779 c -5.644849,-0.301741 -8.010673,-1.119351 -10.241309,-3.539305 -1.186088,-1.286753 -1.951196,-2.627521 -2.441424,-4.278328 -0.842331,-2.836493 -0.786753,-28.534748 0.06818,-31.525056 0.876012,-3.064034 2.603615,-5.259373 5.138293,-6.529447 2.649545,-1.327632 3.188019,-1.368416 18.067313,-1.368416 12.744986,0 14.020896,0.04019 15.470156,0.487327 3.2129,0.991257 5.08005,2.371011 6.33915,4.684388 1.54247,2.834032 1.55576,2.969667 1.66994,17.044518 0.13939,17.183151 -0.0673,18.579545 -3.21547,21.727756 -1.69642,1.696419 -3.38672,2.540548 -6.10857,3.050591 -1.74791,0.327538 -19.853649,0.507508 -24.746258,0.245972 z m 14.293218,-9.401247 c 3.938961,-1.048184 7.623734,-4.034245 9.378481,-7.600119 0.98757,-2.006875 1.72683,-4.871429 1.72683,-6.691268 0,-3.567684 -1.81042,-7.814707 -4.466515,-10.477916 -8.676281,-8.699504 -23.427109,-3.708215 -25.16048,8.513636 -1.011834,7.134358 3.751266,14.322322 10.769096,16.251574 1.736397,0.477351 5.965748,0.479581 7.752588,0.0041 z m -7.052871,-5.108181 c -5.428732,-1.937107 -7.969772,-8.197175 -5.425308,-13.365713 0.997069,-2.025341 2.676179,-3.661304 4.760921,-4.638593 1.277305,-0.598779 1.857174,-0.7039 3.8828,-0.7039 2.025626,0 2.605495,0.105121 3.8828,0.7039 5.374868,2.519643 7.400367,9.081675 4.315344,13.980475 -0.851366,1.35191 -2.894865,3.140107 -4.315206,3.776091 -1.753285,0.785067 -5.253302,0.907169 -7.101351,0.24774 z m 20.308882,-21.631469 c 2.36659,-1.223811 2.36659,-4.835915 0,-6.059726 -1.62237,-0.83896 -3.58786,-0.294087 -4.53347,1.256771 -1.79291,2.940467 1.46353,6.390482 4.53347,4.802955 z"
         id="path864"
         inkscape:connector-curvature="0" />
      <path
         style="fill:#b3379c;stroke-width:0.26458335"
         d="m 105.7694,-16.801842 c -0.20985,-0.231884 -0.87849,-1.371444 -1.48587,-2.532351 -0.60737,-1.16091 -1.62547,-2.796683 -2.26245,-3.635053 -0.63697,-0.838369 -1.15813,-1.621287 -1.15813,-1.739815 0,-0.118531 -0.29399,-0.491697 -0.6533,-0.829257 -0.764843,-0.718527 -0.65476,-1.065729 0.33819,-1.06666 0.39159,-2.65e-4 1.82957,-0.300077 3.19551,-0.66602 7.45574,-1.997432 11.62135,-7.023219 12.46616,-15.040351 0.34521,-3.275984 0.33252,-23.518771 -0.0169,-26.928993 -0.94131,-9.187348 -6.11654,-14.363518 -15.29157,-15.294329 -3.552856,-0.36044 -23.246287,-0.36044 -26.799142,0 -9.248753,0.938291 -14.385682,6.132509 -15.301211,15.471859 -0.156534,1.59681 -0.311332,8.945371 -0.343997,16.330136 -0.05915,13.372481 -0.0616,13.426848 -0.605828,13.427605 -0.739052,0.0011 -5.010038,2.240584 -6.377257,3.344016 -0.606571,0.489542 -1.3269,0.890077 -1.600727,0.890077 -0.273827,0 -0.640742,0.142875 -0.815367,0.3175 -0.246944,0.246943 -0.324456,0.232246 -0.348804,-0.06615 -0.01722,-0.211005 -0.115275,-0.02646 -0.217907,0.410104 -0.428294,1.821836 -0.580991,-6.248054 -0.480611,-25.400001 0.117189,-22.359252 0.0715,-21.757769 1.954288,-25.726493 2.285919,-4.81848 6.311303,-7.881612 12.136993,-9.235693 1.980413,-0.460312 3.641006,-0.491749 25.796876,-0.488351 l 23.680214,0.0036 2.11666,0.591482 c 3.53245,0.987109 5.81051,2.269271 8.10038,4.559142 1.58735,1.587349 2.25778,2.509787 3.09271,4.255234 2.09984,4.389754 2.03608,3.445814 2.03608,30.142089 0,21.513144 -0.0419,23.861806 -0.45801,25.664584 -0.97397,4.219893 -3.707,8.287161 -7.08389,10.542157 -2.54712,1.700908 -6.74688,2.867022 -10.91462,3.030582 -1.8654,0.07321 -2.39129,0.0088 -2.69849,-0.330686 z M 93.586908,-32.670879 c -1.441683,-0.1866 -2.032643,-0.452332 -3.836459,-1.725102 -1.280803,-0.903735 -4.496586,-2.527081 -5.006038,-2.527081 -0.170992,0 -0.57748,-0.28765 -0.903306,-0.63922 -0.372563,-0.402003 -1.128834,-0.750906 -2.037887,-0.94017 -0.795012,-0.165524 -1.921727,-0.40658 -2.503811,-0.535684 -1.228688,-0.272518 -4.233047,-1.339173 -5.080119,-1.803622 -0.39572,-0.216974 -1.947712,-0.30689 -4.845356,-0.280723 -2.395103,0.02164 -4.373242,-0.07159 -4.514392,-0.212738 -0.534426,-0.534427 -0.849718,-6.746241 -0.877263,-17.283677 -0.03138,-12.005438 0.02796,-12.616161 1.498043,-15.416833 0.922151,-1.756802 2.277119,-3.078077 4.08615,-3.984544 2.649545,-1.327632 3.188019,-1.368416 18.067313,-1.368416 12.731337,0 14.023117,0.04059 15.478127,0.486392 3.24382,0.993871 5.25589,2.536419 6.51118,4.991791 1.35085,2.642264 1.37755,2.939847 1.48991,16.604636 0.1112,13.523022 -0.0106,15.719498 -1.0217,18.425444 -0.81067,2.169563 -3.20326,4.556017 -5.39189,5.378054 -2.41136,0.905695 -7.561764,1.291074 -11.112502,0.831493 z m -2.659671,-8.360736 c 4.11213,-1.071076 8.029321,-4.223769 9.786053,-7.87617 2.24252,-4.662398 2.23506,-9.076336 -0.0231,-13.679861 -2.592709,-5.285452 -8.7687,-8.694567 -14.616641,-8.068306 -6.206672,0.664678 -11.523356,5.296451 -13.101573,11.413787 -0.530129,2.054839 -0.538047,5.337943 -0.0178,7.380701 1.296647,5.091309 5.561213,9.49429 10.476024,10.816048 1.89249,0.508955 5.570048,0.515723 7.497067,0.01381 z m -6.238222,-5.830486 c -2.732937,-0.841497 -5.294244,-3.337814 -6.153036,-5.996906 -0.606994,-1.879446 -0.55485,-4.869688 0.116191,-6.663208 0.758391,-2.026979 2.539506,-3.915008 4.693815,-4.975572 1.597572,-0.786482 1.987251,-0.867984 4.149942,-0.867984 2.031651,0 2.610247,0.10474 3.888364,0.7039 7.921253,3.713342 7.474464,14.869531 -0.708252,17.684798 -1.797696,0.618498 -4.201782,0.664665 -5.987024,0.114972 z m 19.902945,-21.426933 c 2.36659,-1.223811 2.36659,-4.835915 0,-6.059726 -1.62237,-0.83896 -3.58786,-0.294087 -4.53347,1.256771 -1.79291,2.940467 1.46353,6.390482 4.53347,4.802955 z"
         id="path862"
         inkscape:connector-curvature="0" />
      <path
         style="fill:#e24959;stroke-width:0.26458335"
         d="m 105.7694,-16.801842 c -0.20985,-0.231884 -0.87849,-1.371444 -1.48587,-2.532351 -0.60737,-1.16091 -1.62547,-2.796683 -2.26245,-3.635053 -0.63697,-0.838369 -1.15813,-1.621287 -1.15813,-1.739815 0,-0.118531 -0.29399,-0.491697 -0.6533,-0.829257 -0.764843,-0.718527 -0.65476,-1.065729 0.33819,-1.06666 1.31244,-0.0013 5.661,-1.321888 7.45263,-2.263363 3.37762,-1.774888 6.40128,-5.429035 7.86051,-9.499566 0.47777,-1.332727 0.86824,-4.53713 1.09744,-9.006197 l 0.17641,-3.439583 1.00277,-0.05551 c 0.87018,-0.04818 1.03895,0.03929 1.27628,0.661458 0.15042,0.394335 0.34124,1.285997 0.42405,1.981473 0.0828,0.695473 0.25262,1.327578 0.37737,1.404675 0.12475,0.0771 0.22682,0.0141 0.22682,-0.140017 0,-0.154109 0.22263,-0.280199 0.49474,-0.280199 0.3936,0 0.5586,0.324559 0.80707,1.5875 0.17177,0.873125 0.42539,1.5875 0.56358,1.5875 0.1382,0 0.25127,0.172678 0.25127,0.383728 0,0.21105 0.16122,0.478941 0.35826,0.595312 0.64184,0.379077 0.90838,1.228413 1.2292,3.916784 0.35586,2.982039 0.37636,3.041676 1.04569,3.041676 0.51319,0 0.80644,0.494596 0.80644,1.36017 0,0.348097 -0.11067,0.456658 -0.33073,0.324448 -0.22473,-0.135011 -0.21434,-0.05521 0.0324,0.248968 0.19972,0.246216 0.27444,0.447664 0.16605,0.447664 -0.1084,0 -0.0393,0.190117 0.15354,0.422482 0.29616,0.356849 0.27836,0.46292 -0.11457,0.682815 -0.33953,0.190011 -0.38991,0.351044 -0.18651,0.59613 0.28013,0.337532 0.16608,1.16885 -0.52883,3.854823 -0.91902,3.552162 -3.60756,7.084161 -7.05817,9.272472 -2.15438,1.366263 -5.83136,2.29779 -9.66365,2.448184 -1.8654,0.07321 -2.39129,0.0088 -2.69849,-0.330686 z M 93.586908,-32.670879 c -1.441683,-0.1866 -2.032643,-0.452332 -3.836459,-1.725102 -1.280803,-0.903735 -4.496586,-2.527081 -5.006038,-2.527081 -0.170992,0 -0.57748,-0.28765 -0.903306,-0.63922 -0.372563,-0.402003 -1.128834,-0.750906 -2.037887,-0.94017 -0.795012,-0.165524 -1.921727,-0.40658 -2.503811,-0.535684 -1.228688,-0.272518 -4.233047,-1.339173 -5.080119,-1.803622 -0.39572,-0.216974 -1.947712,-0.30689 -4.845356,-0.280723 -2.377565,0.02148 -4.373617,-0.07196 -4.512902,-0.211249 -0.616743,-0.616743 -1.218451,-16.301268 -0.697147,-18.17228 0.192961,-0.692557 0.285414,-0.740732 1.120771,-0.58402 0.536702,0.100687 1.155343,0.03975 1.50698,-0.148442 0.74882,-0.400756 1.411502,-0.514934 3.961607,-0.682574 l 2.037168,-0.133919 -0.154059,3.665432 c -0.122671,2.918626 -0.06534,4.015822 0.281388,5.38522 1.339244,5.28931 5.566409,9.654102 10.625996,10.971957 1.990789,0.518533 5.394246,0.518874 7.383503,7.94e-4 2.072465,-0.539809 4.741397,-1.97148 6.431645,-3.450067 1.933541,-1.691415 3.906488,-4.802137 4.742948,-7.478136 0.63105,-2.018842 0.67684,-2.46998 0.54378,-5.357812 -0.13141,-2.852465 -0.10221,-3.153403 0.30603,-3.153403 0.24822,0 0.58381,-0.1325 0.74576,-0.294446 0.30395,-0.303954 0.86972,-0.114872 0.86972,0.29066 0,0.126265 -0.20836,0.28402 -0.46302,0.350568 -0.35753,0.09343 -0.33095,0.127995 0.11667,0.151693 0.31884,0.01688 0.64454,0.135605 0.72379,0.263832 0.0793,0.128228 1.00901,0.31527 2.06613,0.415648 2.68685,0.255129 3.24017,0.766529 3.46958,3.206715 0.67346,7.163372 0.44698,14.568446 -0.53404,17.461001 -0.63985,1.886611 -3.14648,4.33406 -5.24682,5.122937 -2.41136,0.905695 -7.561764,1.291074 -11.112502,0.831493 z m -45.452931,-3.193849 c -0.101488,-1.236928 -0.185238,-5.473359 -0.18611,-9.414297 l -0.0016,-7.165335 1.256771,-0.800391 c 0.691224,-0.440213 2.090208,-1.248457 3.108854,-1.796092 1.018646,-0.547637 2.030677,-1.145656 2.248959,-1.328931 0.664097,-0.557593 2.059065,-1.190789 2.623385,-1.190789 0.293148,0 0.646054,0.211249 0.784234,0.469443 0.138336,0.258482 0.291143,4.360547 0.340038,9.128265 0.08822,8.602372 0.08524,8.658826 -0.457638,8.658686 -0.738124,-1.93e-4 -5.008501,2.238444 -6.377256,3.343114 -0.606574,0.489542 -1.326903,0.890077 -1.60073,0.890077 -0.273827,0 -0.640742,0.142875 -0.815367,0.3175 -0.246944,0.246943 -0.324456,0.232246 -0.348804,-0.06615 -0.01722,-0.211005 -0.112062,-0.02646 -0.210765,0.410104 -0.134591,0.595294 -0.225596,0.231455 -0.363985,-1.455208 z m 36.555038,-10.997373 c -2.784039,-0.857231 -5.322171,-3.367172 -6.187726,-6.118998 -0.604689,-1.922465 -0.454739,-4.819017 0.33302,-6.432849 0.625076,-1.280554 4.157057,-4.617151 4.598634,-4.344241 0.140398,0.08677 0.428648,0.01386 0.640553,-0.161992 0.308944,-0.256399 0.385287,-0.239069 0.385287,0.08746 0,0.223972 -0.148829,0.462737 -0.33073,0.53059 -0.230113,0.08584 -0.150926,0.310356 0.26029,0.738007 l 0.591015,0.614641 0.54696,-0.587092 c 0.300829,-0.3229 0.474329,-0.704615 0.385556,-0.848252 -0.09773,-0.158125 0.392764,-0.27215 1.243272,-0.289025 0.772573,-0.01532 1.94046,-0.05187 2.595303,-0.08121 1.725417,-0.0773 2.313398,0.08562 2.469976,0.684371 0.09923,0.37945 0.281937,0.485029 0.641742,0.37083 0.782018,-0.248203 3.084298,2.624129 3.6469,4.549889 0.841423,2.880143 0.0405,6.634009 -1.829546,8.57495 -2.643201,2.743409 -6.494744,3.789291 -9.990506,2.712913 z"
         id="path860"
         inkscape:connector-curvature="0" />
    </g>
  </g>
</svg>
